<svg width="198" height="98" viewBox="0 0 198 98" fill="none" xmlns="http://www.w3.org/2000/svg">
<path d="M40.9672 56.55C41.3005 59.65 41.1505 62.4 40.5172 64.8C39.9172 67.2 38.9672 69.2833 37.6672 71.05C36.4005 72.7833 34.9005 74.2167 33.1672 75.35C31.4339 76.45 29.5839 77.2833 27.6172 77.85C25.6839 78.3833 23.7672 78.65 21.8672 78.65C19.9672 78.65 18.0339 78.4 16.0672 77.9C14.1005 77.4 12.2339 76.6167 10.4672 75.55C8.73385 74.4833 7.20052 73.1 5.86719 71.4C4.56719 69.7 3.60052 67.6833 2.96719 65.35C2.33385 62.9833 2.18385 60.25 2.51719 57.15C2.78385 54.4833 3.45052 52 4.51719 49.7C5.58385 47.3667 6.96719 45.35 8.66719 43.65C10.3672 41.9167 12.3172 40.5833 14.5172 39.65C16.7172 38.6833 19.0672 38.2333 21.5672 38.3C21.7339 38.3 21.9839 38.1833 22.3172 37.95C22.6505 37.6833 23.1005 37.4333 23.6672 37.2C24.2339 36.9667 24.9172 36.8833 25.7172 36.95C27.2172 37.0833 28.8005 37.7 30.4672 38.8C32.1339 39.9 33.7172 41.3667 35.2172 43.2C36.7172 45 37.9839 47.05 39.0172 49.35C40.0505 51.65 40.7005 54.05 40.9672 56.55ZM22.0172 69.4C23.1839 69.3667 24.2839 69.2 25.3172 68.9C26.3839 68.6 27.3339 68.05 28.1672 67.25C29.0005 66.45 29.6672 65.3167 30.1672 63.85C30.7005 62.3833 30.9839 60.5 31.0172 58.2C31.0505 56.6 30.7005 55.05 29.9672 53.55C29.2339 52.05 28.2172 50.7833 26.9172 49.75C25.6172 48.6833 24.1339 48.0667 22.4672 47.9C20.6672 47.7 19.1339 47.8833 17.8672 48.45C16.6005 48.9833 15.5505 49.7833 14.7172 50.85C13.9172 51.8833 13.3005 53.05 12.8672 54.35C12.4339 55.65 12.1672 56.9667 12.0672 58.3C11.8672 60.6 12.0839 62.4833 12.7172 63.95C13.3505 65.4167 14.2005 66.55 15.2672 67.35C16.3339 68.15 17.4672 68.7 18.6672 69C19.9005 69.3 21.0172 69.4333 22.0172 69.4ZM58.7406 49.1C61.7073 48.8667 64.2073 49.3667 66.2406 50.6C68.274 51.8 69.824 53.4833 70.8906 55.65C71.9573 57.7833 72.5073 60.15 72.5406 62.75C72.6073 65.15 72.2573 67.2833 71.4906 69.15C70.724 70.9833 69.674 72.55 68.3406 73.85C67.0073 75.1167 65.5073 76.0833 63.8406 76.75C62.2073 77.4167 60.524 77.75 58.7906 77.75C58.424 77.75 57.9406 77.8 57.3406 77.9C56.774 77.9667 56.3073 78.15 55.9406 78.45C55.7073 78.6833 55.5406 78.9333 55.4406 79.2C55.374 79.4667 55.3573 79.7833 55.3906 80.15C55.4573 80.75 55.5906 81.1667 55.7906 81.4C56.024 81.6667 56.224 81.95 56.3906 82.25C56.024 82.65 55.5073 83.0833 54.8406 83.55C54.174 84.0167 53.3573 84.3833 52.3906 84.65C51.4573 84.9167 50.3406 84.95 49.0406 84.75C48.2406 84.6167 47.5406 84.1 46.9406 83.2C46.3406 82.3 46.024 81.0833 45.9906 79.55L45.8406 56.3C45.8406 54.4333 45.724 52.9167 45.4906 51.75C45.2573 50.55 45.1406 49.95 45.1406 49.95C45.574 49.8167 46.2573 49.7 47.1906 49.6C48.1573 49.5 49.1573 49.5667 50.1906 49.8C50.5906 49.9 51.0906 50.0167 51.6906 50.15C52.324 50.25 53.0073 50.25 53.7406 50.15C54.7073 50.05 55.674 49.8667 56.6406 49.6C57.6073 49.3 58.3073 49.1333 58.7406 49.1ZM59.6906 69.9C60.7573 69.9 61.7573 69.35 62.6906 68.25C63.624 67.1167 64.0906 65.5333 64.0906 63.5C64.0906 62.1333 63.8573 60.9833 63.3906 60.05C62.9573 59.0833 62.4073 58.3667 61.7406 57.9C61.074 57.4 60.424 57.15 59.7906 57.15C59.1573 57.15 58.5073 57.2 57.8406 57.3C57.2073 57.4 56.6406 57.7833 56.1406 58.45C55.674 59.1167 55.374 60.3 55.2406 62C55.074 64.2 55.2073 65.8667 55.6406 67C56.1073 68.1333 56.724 68.9 57.4906 69.3C58.2573 69.7 58.9906 69.9 59.6906 69.9ZM132.807 51.35C132.973 52.35 133.09 53.4333 133.157 54.6C133.257 55.7667 133.257 57.1833 133.157 58.85C133.057 60.4833 132.807 62.5 132.407 64.9C131.907 68.1333 130.59 70.85 128.457 73.05C126.323 75.2167 123.657 76.6333 120.457 77.3C119.557 77.5 118.507 77.65 117.307 77.75C116.107 77.8167 114.907 77.8833 113.707 77.95C112.54 77.9833 111.49 78.0333 110.557 78.1C109.723 78.2667 108.723 78.3833 107.557 78.45C106.39 78.5167 105.29 78.5 104.257 78.4C103.223 78.3 102.473 78.1167 102.007 77.85C102.24 77.3833 102.44 76.6833 102.607 75.75C102.807 74.7833 102.957 73.7333 103.057 72.6C103.157 71.4667 103.19 70.3833 103.157 69.35C103.157 69.35 103.157 69.0667 103.157 68.5C103.19 67.9333 103.207 67.2667 103.207 66.5C103.24 65.7 103.257 64.9167 103.257 64.15C103.257 63.3833 103.24 62.8 103.207 62.4C103.173 61.8333 102.923 61.3833 102.457 61.05C101.99 60.6833 101.49 60.4167 100.957 60.25C100.457 60.0833 100.073 60 99.8066 60C99.4066 59.9667 99.09 59.95 98.8566 59.95C98.6233 59.95 98.49 59.95 98.4566 59.95C98.1566 59.95 97.8066 59.7 97.4066 59.2C97.04 58.6667 96.7733 58.0833 96.6066 57.45C96.44 56.7833 96.5233 56.2833 96.8566 55.95C96.89 55.95 97.0733 55.9667 97.4066 56C97.74 56 98.1733 55.9667 98.7066 55.9C99.94 55.7667 100.857 55.5 101.457 55.1C102.057 54.6667 102.457 54.2 102.657 53.7C102.89 53.2 103.007 52.7667 103.007 52.4C103.007 51.0333 102.99 49.7833 102.957 48.65C102.957 47.5167 102.923 46.6333 102.857 46C102.79 45.3 102.523 44.6833 102.057 44.15C101.59 43.6167 101.273 43.0833 101.107 42.55C100.573 41.0833 100.34 39.65 100.407 38.25C100.573 38.2833 100.94 38.3333 101.507 38.4C102.107 38.4333 102.79 38.4833 103.557 38.55C104.09 38.5833 104.857 38.6167 105.857 38.65C106.857 38.6833 107.973 38.7333 109.207 38.8C110.44 38.8333 111.673 38.8667 112.907 38.9C112.907 38.9 113.173 38.9167 113.707 38.95C114.273 38.95 114.973 38.9833 115.807 39.05C116.673 39.1167 117.54 39.2167 118.407 39.35C119.307 39.45 120.09 39.5833 120.757 39.75C122.923 40.3167 124.757 41.1 126.257 42.1C127.757 43.0667 128.957 44.1167 129.857 45.25C130.79 46.3833 131.49 47.5 131.957 48.6C132.423 49.6667 132.707 50.5833 132.807 51.35ZM115.357 68.5C116.723 68.1667 118.007 67.5167 119.207 66.55C120.44 65.55 121.407 64.2167 122.107 62.55C122.84 60.85 123.107 58.7833 122.907 56.35C122.673 53.1833 121.84 50.9833 120.407 49.75C118.973 48.5167 117.14 47.8833 114.907 47.85C114.273 47.8167 113.773 48.2333 113.407 49.1C113.04 49.9667 112.79 51.3667 112.657 53.3C112.623 53.8667 112.74 54.45 113.007 55.05C113.307 55.6167 113.773 55.9167 114.407 55.95H115.507C115.607 55.95 115.757 56.1333 115.957 56.5C116.19 56.8667 116.407 57.3 116.607 57.8C116.84 58.3 117.007 58.7667 117.107 59.2C117.207 59.6 117.207 59.85 117.107 59.95C117.04 60.0167 116.44 60.05 115.307 60.05C114.907 60.0833 114.39 60.3 113.757 60.7C113.123 61.1 112.757 61.8833 112.657 63.05C112.59 63.8167 112.623 64.5833 112.757 65.35C112.923 66.1167 113.073 66.7833 113.207 67.35C113.373 68.05 113.69 68.45 114.157 68.55C114.623 68.6167 115.023 68.6 115.357 68.5ZM162.43 65.45C163.264 66.0167 163.797 66.8333 164.03 67.9C164.297 68.9333 164.264 70.0667 163.93 71.3C163.63 72.5333 163.014 73.7167 162.08 74.85C161.147 75.95 159.88 76.8667 158.28 77.6C156.714 78.3333 154.814 78.7167 152.58 78.75C150.714 78.7833 148.88 78.55 147.08 78.05C145.314 77.55 143.697 76.7833 142.23 75.75C140.797 74.7167 139.63 73.3833 138.73 71.75C137.83 70.1167 137.33 68.1667 137.23 65.9C137.197 65.4333 137.197 64.95 137.23 64.45C137.264 63.95 137.297 63.4333 137.33 62.9C137.33 62.7667 137.33 62.6333 137.33 62.5C137.364 62.3667 137.397 62.2333 137.43 62.1C137.764 60.1 138.447 58.2667 139.48 56.6C140.547 54.9333 141.847 53.5167 143.38 52.35C144.914 51.1833 146.547 50.3333 148.28 49.8C150.047 49.2333 151.78 49.0333 153.48 49.2C156.114 49.4667 158.147 50.1667 159.58 51.3C161.047 52.4333 161.997 53.8333 162.43 55.5C162.897 57.1333 162.914 58.9 162.48 60.8C162.247 61.7333 161.714 62.6667 160.88 63.6C160.08 64.5 159.08 65.3167 157.88 66.05C156.68 66.75 155.397 67.3 154.03 67.7C152.697 68.0667 151.397 68.2167 150.13 68.15C149.497 68.1167 149.164 68.3167 149.13 68.75C149.097 69.15 149.28 69.6 149.68 70.1C150.08 70.5667 150.614 70.8833 151.28 71.05C152.847 71.3833 154.314 71.4 155.68 71.1C157.08 70.7667 158.147 70.3167 158.88 69.75C159.48 69.2833 160.114 68.6667 160.78 67.9C161.447 67.1 161.997 66.2833 162.43 65.45ZM151.48 60.4C152.247 60.3333 152.914 60.1 153.48 59.7C154.08 59.2667 154.38 58.8167 154.38 58.35C154.414 57.6833 154.247 57.15 153.88 56.75C153.547 56.3167 152.964 56.1167 152.13 56.15C151.197 56.1833 150.297 56.3167 149.43 56.55C148.564 56.7833 148.047 57.2667 147.88 58C147.78 58.5 147.93 58.9333 148.33 59.3C148.73 59.6667 149.23 59.95 149.83 60.15C150.43 60.3167 150.98 60.4 151.48 60.4ZM181.836 49.1C184.803 48.8667 187.303 49.3667 189.336 50.6C191.37 51.8 192.92 53.4833 193.986 55.65C195.053 57.7833 195.603 60.15 195.636 62.75C195.703 65.15 195.353 67.2833 194.586 69.15C193.82 70.9833 192.77 72.55 191.436 73.85C190.103 75.1167 188.603 76.0833 186.936 76.75C185.303 77.4167 183.62 77.75 181.886 77.75C181.52 77.75 181.036 77.8 180.436 77.9C179.87 77.9667 179.403 78.15 179.036 78.45C178.803 78.6833 178.636 78.9333 178.536 79.2C178.47 79.4667 178.453 79.7833 178.486 80.15C178.553 80.75 178.686 81.1667 178.886 81.4C179.12 81.6667 179.32 81.95 179.486 82.25C179.12 82.65 178.603 83.0833 177.936 83.55C177.27 84.0167 176.453 84.3833 175.486 84.65C174.553 84.9167 173.436 84.95 172.136 84.75C171.336 84.6167 170.636 84.1 170.036 83.2C169.436 82.3 169.12 81.0833 169.086 79.55L168.936 56.3C168.936 54.4333 168.82 52.9167 168.586 51.75C168.353 50.55 168.236 49.95 168.236 49.95C168.67 49.8167 169.353 49.7 170.286 49.6C171.253 49.5 172.253 49.5667 173.286 49.8C173.686 49.9 174.186 50.0167 174.786 50.15C175.42 50.25 176.103 50.25 176.836 50.15C177.803 50.05 178.77 49.8667 179.736 49.6C180.703 49.3 181.403 49.1333 181.836 49.1ZM182.786 69.9C183.853 69.9 184.853 69.35 185.786 68.25C186.72 67.1167 187.186 65.5333 187.186 63.5C187.186 62.1333 186.953 60.9833 186.486 60.05C186.053 59.0833 185.503 58.3667 184.836 57.9C184.17 57.4 183.52 57.15 182.886 57.15C182.253 57.15 181.603 57.2 180.936 57.3C180.303 57.4 179.736 57.7833 179.236 58.45C178.77 59.1167 178.47 60.3 178.336 62C178.17 64.2 178.303 65.8667 178.736 67C179.203 68.1333 179.82 68.9 180.586 69.3C181.353 69.7 182.086 69.9 182.786 69.9Z" fill="#DB3838"/>
<path d="M40.9672 56.55C41.3005 59.65 41.1505 62.4 40.5172 64.8C39.9172 67.2 38.9672 69.2833 37.6672 71.05C36.4005 72.7833 34.9005 74.2167 33.1672 75.35C31.4339 76.45 29.5839 77.2833 27.6172 77.85C25.6839 78.3833 23.7672 78.65 21.8672 78.65C19.9672 78.65 18.0339 78.4 16.0672 77.9C14.1005 77.4 12.2339 76.6167 10.4672 75.55C8.73385 74.4833 7.20052 73.1 5.86719 71.4C4.56719 69.7 3.60052 67.6833 2.96719 65.35C2.33385 62.9833 2.18385 60.25 2.51719 57.15C2.78385 54.4833 3.45052 52 4.51719 49.7C5.58385 47.3667 6.96719 45.35 8.66719 43.65C10.3672 41.9167 12.3172 40.5833 14.5172 39.65C16.7172 38.6833 19.0672 38.2333 21.5672 38.3C21.7339 38.3 21.9839 38.1833 22.3172 37.95C22.6505 37.6833 23.1005 37.4333 23.6672 37.2C24.2339 36.9667 24.9172 36.8833 25.7172 36.95C27.2172 37.0833 28.8005 37.7 30.4672 38.8C32.1339 39.9 33.7172 41.3667 35.2172 43.2C36.7172 45 37.9839 47.05 39.0172 49.35C40.0505 51.65 40.7005 54.05 40.9672 56.55ZM22.0172 69.4C23.1839 69.3667 24.2839 69.2 25.3172 68.9C26.3839 68.6 27.3339 68.05 28.1672 67.25C29.0005 66.45 29.6672 65.3167 30.1672 63.85C30.7005 62.3833 30.9839 60.5 31.0172 58.2C31.0505 56.6 30.7005 55.05 29.9672 53.55C29.2339 52.05 28.2172 50.7833 26.9172 49.75C25.6172 48.6833 24.1339 48.0667 22.4672 47.9C20.6672 47.7 19.1339 47.8833 17.8672 48.45C16.6005 48.9833 15.5505 49.7833 14.7172 50.85C13.9172 51.8833 13.3005 53.05 12.8672 54.35C12.4339 55.65 12.1672 56.9667 12.0672 58.3C11.8672 60.6 12.0839 62.4833 12.7172 63.95C13.3505 65.4167 14.2005 66.55 15.2672 67.35C16.3339 68.15 17.4672 68.7 18.6672 69C19.9005 69.3 21.0172 69.4333 22.0172 69.4ZM58.7406 49.1C61.7073 48.8667 64.2073 49.3667 66.2406 50.6C68.274 51.8 69.824 53.4833 70.8906 55.65C71.9573 57.7833 72.5073 60.15 72.5406 62.75C72.6073 65.15 72.2573 67.2833 71.4906 69.15C70.724 70.9833 69.674 72.55 68.3406 73.85C67.0073 75.1167 65.5073 76.0833 63.8406 76.75C62.2073 77.4167 60.524 77.75 58.7906 77.75C58.424 77.75 57.9406 77.8 57.3406 77.9C56.774 77.9667 56.3073 78.15 55.9406 78.45C55.7073 78.6833 55.5406 78.9333 55.4406 79.2C55.374 79.4667 55.3573 79.7833 55.3906 80.15C55.4573 80.75 55.5906 81.1667 55.7906 81.4C56.024 81.6667 56.224 81.95 56.3906 82.25C56.024 82.65 55.5073 83.0833 54.8406 83.55C54.174 84.0167 53.3573 84.3833 52.3906 84.65C51.4573 84.9167 50.3406 84.95 49.0406 84.75C48.2406 84.6167 47.5406 84.1 46.9406 83.2C46.3406 82.3 46.024 81.0833 45.9906 79.55L45.8406 56.3C45.8406 54.4333 45.724 52.9167 45.4906 51.75C45.2573 50.55 45.1406 49.95 45.1406 49.95C45.574 49.8167 46.2573 49.7 47.1906 49.6C48.1573 49.5 49.1573 49.5667 50.1906 49.8C50.5906 49.9 51.0906 50.0167 51.6906 50.15C52.324 50.25 53.0073 50.25 53.7406 50.15C54.7073 50.05 55.674 49.8667 56.6406 49.6C57.6073 49.3 58.3073 49.1333 58.7406 49.1ZM59.6906 69.9C60.7573 69.9 61.7573 69.35 62.6906 68.25C63.624 67.1167 64.0906 65.5333 64.0906 63.5C64.0906 62.1333 63.8573 60.9833 63.3906 60.05C62.9573 59.0833 62.4073 58.3667 61.7406 57.9C61.074 57.4 60.424 57.15 59.7906 57.15C59.1573 57.15 58.5073 57.2 57.8406 57.3C57.2073 57.4 56.6406 57.7833 56.1406 58.45C55.674 59.1167 55.374 60.3 55.2406 62C55.074 64.2 55.2073 65.8667 55.6406 67C56.1073 68.1333 56.724 68.9 57.4906 69.3C58.2573 69.7 58.9906 69.9 59.6906 69.9ZM132.807 51.35C132.973 52.35 133.09 53.4333 133.157 54.6C133.257 55.7667 133.257 57.1833 133.157 58.85C133.057 60.4833 132.807 62.5 132.407 64.9C131.907 68.1333 130.59 70.85 128.457 73.05C126.323 75.2167 123.657 76.6333 120.457 77.3C119.557 77.5 118.507 77.65 117.307 77.75C116.107 77.8167 114.907 77.8833 113.707 77.95C112.54 77.9833 111.49 78.0333 110.557 78.1C109.723 78.2667 108.723 78.3833 107.557 78.45C106.39 78.5167 105.29 78.5 104.257 78.4C103.223 78.3 102.473 78.1167 102.007 77.85C102.24 77.3833 102.44 76.6833 102.607 75.75C102.807 74.7833 102.957 73.7333 103.057 72.6C103.157 71.4667 103.19 70.3833 103.157 69.35C103.157 69.35 103.157 69.0667 103.157 68.5C103.19 67.9333 103.207 67.2667 103.207 66.5C103.24 65.7 103.257 64.9167 103.257 64.15C103.257 63.3833 103.24 62.8 103.207 62.4C103.173 61.8333 102.923 61.3833 102.457 61.05C101.99 60.6833 101.49 60.4167 100.957 60.25C100.457 60.0833 100.073 60 99.8066 60C99.4066 59.9667 99.09 59.95 98.8566 59.95C98.6233 59.95 98.49 59.95 98.4566 59.95C98.1566 59.95 97.8066 59.7 97.4066 59.2C97.04 58.6667 96.7733 58.0833 96.6066 57.45C96.44 56.7833 96.5233 56.2833 96.8566 55.95C96.89 55.95 97.0733 55.9667 97.4066 56C97.74 56 98.1733 55.9667 98.7066 55.9C99.94 55.7667 100.857 55.5 101.457 55.1C102.057 54.6667 102.457 54.2 102.657 53.7C102.89 53.2 103.007 52.7667 103.007 52.4C103.007 51.0333 102.99 49.7833 102.957 48.65C102.957 47.5167 102.923 46.6333 102.857 46C102.79 45.3 102.523 44.6833 102.057 44.15C101.59 43.6167 101.273 43.0833 101.107 42.55C100.573 41.0833 100.34 39.65 100.407 38.25C100.573 38.2833 100.94 38.3333 101.507 38.4C102.107 38.4333 102.79 38.4833 103.557 38.55C104.09 38.5833 104.857 38.6167 105.857 38.65C106.857 38.6833 107.973 38.7333 109.207 38.8C110.44 38.8333 111.673 38.8667 112.907 38.9C112.907 38.9 113.173 38.9167 113.707 38.95C114.273 38.95 114.973 38.9833 115.807 39.05C116.673 39.1167 117.54 39.2167 118.407 39.35C119.307 39.45 120.09 39.5833 120.757 39.75C122.923 40.3167 124.757 41.1 126.257 42.1C127.757 43.0667 128.957 44.1167 129.857 45.25C130.79 46.3833 131.49 47.5 131.957 48.6C132.423 49.6667 132.707 50.5833 132.807 51.35ZM115.357 68.5C116.723 68.1667 118.007 67.5167 119.207 66.55C120.44 65.55 121.407 64.2167 122.107 62.55C122.84 60.85 123.107 58.7833 122.907 56.35C122.673 53.1833 121.84 50.9833 120.407 49.75C118.973 48.5167 117.14 47.8833 114.907 47.85C114.273 47.8167 113.773 48.2333 113.407 49.1C113.04 49.9667 112.79 51.3667 112.657 53.3C112.623 53.8667 112.74 54.45 113.007 55.05C113.307 55.6167 113.773 55.9167 114.407 55.95H115.507C115.607 55.95 115.757 56.1333 115.957 56.5C116.19 56.8667 116.407 57.3 116.607 57.8C116.84 58.3 117.007 58.7667 117.107 59.2C117.207 59.6 117.207 59.85 117.107 59.95C117.04 60.0167 116.44 60.05 115.307 60.05C114.907 60.0833 114.39 60.3 113.757 60.7C113.123 61.1 112.757 61.8833 112.657 63.05C112.59 63.8167 112.623 64.5833 112.757 65.35C112.923 66.1167 113.073 66.7833 113.207 67.35C113.373 68.05 113.69 68.45 114.157 68.55C114.623 68.6167 115.023 68.6 115.357 68.5ZM162.43 65.45C163.264 66.0167 163.797 66.8333 164.03 67.9C164.297 68.9333 164.264 70.0667 163.93 71.3C163.63 72.5333 163.014 73.7167 162.08 74.85C161.147 75.95 159.88 76.8667 158.28 77.6C156.714 78.3333 154.814 78.7167 152.58 78.75C150.714 78.7833 148.88 78.55 147.08 78.05C145.314 77.55 143.697 76.7833 142.23 75.75C140.797 74.7167 139.63 73.3833 138.73 71.75C137.83 70.1167 137.33 68.1667 137.23 65.9C137.197 65.4333 137.197 64.95 137.23 64.45C137.264 63.95 137.297 63.4333 137.33 62.9C137.33 62.7667 137.33 62.6333 137.33 62.5C137.364 62.3667 137.397 62.2333 137.43 62.1C137.764 60.1 138.447 58.2667 139.48 56.6C140.547 54.9333 141.847 53.5167 143.38 52.35C144.914 51.1833 146.547 50.3333 148.28 49.8C150.047 49.2333 151.78 49.0333 153.48 49.2C156.114 49.4667 158.147 50.1667 159.58 51.3C161.047 52.4333 161.997 53.8333 162.43 55.5C162.897 57.1333 162.914 58.9 162.48 60.8C162.247 61.7333 161.714 62.6667 160.88 63.6C160.08 64.5 159.08 65.3167 157.88 66.05C156.68 66.75 155.397 67.3 154.03 67.7C152.697 68.0667 151.397 68.2167 150.13 68.15C149.497 68.1167 149.164 68.3167 149.13 68.75C149.097 69.15 149.28 69.6 149.68 70.1C150.08 70.5667 150.614 70.8833 151.28 71.05C152.847 71.3833 154.314 71.4 155.68 71.1C157.08 70.7667 158.147 70.3167 158.88 69.75C159.48 69.2833 160.114 68.6667 160.78 67.9C161.447 67.1 161.997 66.2833 162.43 65.45ZM151.48 60.4C152.247 60.3333 152.914 60.1 153.48 59.7C154.08 59.2667 154.38 58.8167 154.38 58.35C154.414 57.6833 154.247 57.15 153.88 56.75C153.547 56.3167 152.964 56.1167 152.13 56.15C151.197 56.1833 150.297 56.3167 149.43 56.55C148.564 56.7833 148.047 57.2667 147.88 58C147.78 58.5 147.93 58.9333 148.33 59.3C148.73 59.6667 149.23 59.95 149.83 60.15C150.43 60.3167 150.98 60.4 151.48 60.4ZM181.836 49.1C184.803 48.8667 187.303 49.3667 189.336 50.6C191.37 51.8 192.92 53.4833 193.986 55.65C195.053 57.7833 195.603 60.15 195.636 62.75C195.703 65.15 195.353 67.2833 194.586 69.15C193.82 70.9833 192.77 72.55 191.436 73.85C190.103 75.1167 188.603 76.0833 186.936 76.75C185.303 77.4167 183.62 77.75 181.886 77.75C181.52 77.75 181.036 77.8 180.436 77.9C179.87 77.9667 179.403 78.15 179.036 78.45C178.803 78.6833 178.636 78.9333 178.536 79.2C178.47 79.4667 178.453 79.7833 178.486 80.15C178.553 80.75 178.686 81.1667 178.886 81.4C179.12 81.6667 179.32 81.95 179.486 82.25C179.12 82.65 178.603 83.0833 177.936 83.55C177.27 84.0167 176.453 84.3833 175.486 84.65C174.553 84.9167 173.436 84.95 172.136 84.75C171.336 84.6167 170.636 84.1 170.036 83.2C169.436 82.3 169.12 81.0833 169.086 79.55L168.936 56.3C168.936 54.4333 168.82 52.9167 168.586 51.75C168.353 50.55 168.236 49.95 168.236 49.95C168.67 49.8167 169.353 49.7 170.286 49.6C171.253 49.5 172.253 49.5667 173.286 49.8C173.686 49.9 174.186 50.0167 174.786 50.15C175.42 50.25 176.103 50.25 176.836 50.15C177.803 50.05 178.77 49.8667 179.736 49.6C180.703 49.3 181.403 49.1333 181.836 49.1ZM182.786 69.9C183.853 69.9 184.853 69.35 185.786 68.25C186.72 67.1167 187.186 65.5333 187.186 63.5C187.186 62.1333 186.953 60.9833 186.486 60.05C186.053 59.0833 185.503 58.3667 184.836 57.9C184.17 57.4 183.52 57.15 182.886 57.15C182.253 57.15 181.603 57.2 180.936 57.3C180.303 57.4 179.736 57.7833 179.236 58.45C178.77 59.1167 178.47 60.3 178.336 62C178.17 64.2 178.303 65.8667 178.736 67C179.203 68.1333 179.82 68.9 180.586 69.3C181.353 69.7 182.086 69.9 182.786 69.9Z" fill="url(#paint0_linear)"/>
<path d="M159.406 85.3422C159.406 87.4437 157.975 89.9062 155.82 91.9094C154.961 92.7089 154.015 93.4097 153 93.9984C149.519 91.9422 146.594 88.2906 146.594 85.3422C146.594 84.5951 146.844 83.8695 147.305 83.2814C147.765 82.6934 148.41 82.2767 149.135 82.0982C149.861 81.9197 150.625 81.9896 151.306 82.2967C151.987 82.6037 152.546 83.1303 152.892 83.7922C152.931 83.8651 152.967 83.9401 153 84.0172C153.092 83.8064 153.204 83.6054 153.336 83.4172C153.745 82.8373 154.328 82.4027 155 82.1763C155.672 81.9499 156.399 81.9435 157.076 82.1579C157.752 82.3724 158.342 82.7966 158.761 83.3691C159.18 83.9416 159.406 84.6327 159.406 85.3422Z" fill="#DA364C"/>
<path d="M158.593 86.4375C158.486 88.1939 157.431 90.1719 155.82 91.9094C154.961 92.7089 154.015 93.4096 153 93.9984C149.519 91.9422 146.594 88.2906 146.594 85.3422C146.592 84.6528 146.805 83.9801 147.203 83.4172C147.766 83.019 148.439 82.8056 149.128 82.8062C150.503 82.8062 151.831 83.8258 152.343 85.0117C152.494 84.6401 152.717 84.3021 153 84.0172C153.039 84.0906 152.967 83.9406 153 84.0172L153.003 84.0108C153.187 83.5914 153.523 83.2573 153.943 83.0758C154.369 82.893 154.829 82.8012 155.293 82.8062C157.238 82.8236 158.71 84.4962 158.593 86.4375Z" fill="#EF5261"/>
<path d="M10.1094 28.2031V35.2344H35.8906V28.2031H10.1094Z" fill="#FF9F00"/>
<path d="M23 28.2031H35.8906V35.2344H23V28.2031Z" fill="#FF7816"/>
<path d="M36.0078 17.9843L34.1093 21.6873H11.8907L9.99219 17.9843C12.7812 14.1171 17.6329 11.7969 23 11.7969C28.3671 11.7969 33.2188 14.1171 36.0078 17.9843Z" fill="#FF4B00"/>
<path d="M36.0078 17.9843L34.1093 21.6873H23V11.7969C28.3671 11.7969 33.2188 14.1171 36.0078 17.9843Z" fill="#CC1E0D"/>
<path d="M40.2736 15.6406L35.8906 30.5469H10.1094L5.72644 15.6406L8.67963 14.5157C10.0157 17.0703 12.5703 18.5703 14.6562 18.8281H15.8751C18.5704 18.4064 20.5858 14.2813 21.4064 10.3436H24.5939C25.4142 14.2813 27.4299 18.4064 30.1249 18.8281H31.3438C33.4297 18.5703 35.9843 17.0703 37.3204 14.5157L40.2736 15.6406Z" fill="#FDBF00"/>
<path d="M40.2736 15.6406L35.8906 30.5469H23V10.3436H24.5936C25.4142 14.2813 27.4296 18.4064 30.1249 18.8281H31.3438C33.4297 18.5703 35.9843 17.0703 37.3204 14.5157L40.2736 15.6406Z" fill="#FF9F00"/>
<path d="M6.59375 16.4844C4.65527 16.4844 3 14.9072 3 12.9688C3 11.0303 4.65527 9.45312 6.59375 9.45312C8.53223 9.45312 10.1094 11.0303 10.1094 12.9688C10.1094 14.9072 8.53223 16.4844 6.59375 16.4844Z" fill="#FF9F00"/>
<path d="M39.4062 16.4844C37.4678 16.4844 35.8906 14.9072 35.8906 12.9688C35.8906 11.0303 37.4678 9.45312 39.4062 9.45312C41.3447 9.45312 43 11.0303 43 12.9688C43 14.9072 41.3447 16.4844 39.4062 16.4844Z" fill="#FF7816"/>
<path d="M23 4.76562C21.0545 4.76562 19.4844 6.33575 19.4844 8.28125C19.4844 10.2264 21.0545 11.7969 23 11.7969C24.9455 11.7969 26.5156 10.2264 26.5156 8.28125C26.5156 6.33575 24.9455 4.76562 23 4.76562Z" fill="#FF9F00"/>
<path d="M22.9999 18.3358L18.9921 22.3437L22.9999 26.3516L27.0078 22.3437L22.9999 18.3358Z" fill="#FF4B00"/>
<path d="M30.0312 23.0302L31.6884 24.6873L30.0312 26.3444L28.3741 24.6873L30.0312 23.0302Z" fill="#CC1E0D"/>
<path d="M15.9688 23.0302L17.6259 24.6873L15.9688 26.3444L14.3116 24.6873L15.9688 23.0302Z" fill="#FF4B00"/>
<path d="M23 11.7969V4.76562C24.9455 4.76562 26.5156 6.33575 26.5156 8.28125C26.5156 10.2264 24.9455 11.7969 23 11.7969Z" fill="#FF7816"/>
<path d="M27.0079 22.3437L23 26.3516V18.3358L27.0079 22.3437Z" fill="#CC1E0D"/>
<defs>
<linearGradient id="paint0_linear" x1="99" y1="49" x2="99" y2="64" gradientUnits="userSpaceOnUse">
<stop stop-color="#E06F1A"/>
<stop offset="1" stop-color="#A38772" stop-opacity="0.52"/>
</linearGradient>
</defs>
</svg>
